<svg id="Icone" xmlns="http://www.w3.org/2000/svg" viewBox="0 0 1056.23 669.12"><defs><style>.cls-1{fill:#828282;}.cls-2{fill:#29abe2;}.cls-3,.cls-4{fill:none;}.cls-3{stroke:#011780;}.cls-3,.cls-4,.cls-5{stroke-miterlimit:10;stroke-width:20px;}.cls-4{stroke:#0bb6ff;opacity:0.6;}.cls-5{fill:#fff;stroke:#29abe2;}</style></defs><title>Logo</title><text x="-137" y="-48.74"/><g id="Name"><path d="M476.39,532a49.29,49.29,0,0,1-7.3,26.12q-7.3,12-21.49,19.94a92.19,92.19,0,0,1-27.4,9.79,169.26,169.26,0,0,1-32.73,3c-2.06,0-4.37,0-7-.08s-4.33-.12-5.27-.22l-1.4-8.83H388.6a159.1,159.1,0,0,0,28.79-2.35Q430,577,438.18,572.9q15.6-7.8,21.43-18.62T465.44,533q0-13.54-6.68-21.71t-20.58-12.58a67.4,67.4,0,0,0-12.5-2.43,182.13,182.13,0,0,0-19.24-.81c-1.6,0-3.3.05-5.13.15s-3.35.19-4.56.29l-1.27-7.8q32-4,46.15-14.57t14.11-30.76q0-11.18-5.41-19.28t-15.66-13.1A57.26,57.26,0,0,0,418,405.35a120.56,120.56,0,0,0-19-1.55q-4.07,0-8.43.08c-2.9.05-4.73.07-5.47.07l2.24-9.27h9.27a158.65,158.65,0,0,1,25,1.91,71.47,71.47,0,0,1,21.63,6.92,43.83,43.83,0,0,1,17,14.93q6.45,9.65,6.46,24.07A44.33,44.33,0,0,1,457.15,470a48.42,48.42,0,0,1-24.87,17.22v.59q19.11,2.51,31.61,13.76T476.39,532Z" transform="translate(-137 -48.74)"/><path d="M661.68,521.69q-15.73-.3-27.11-.3H613.92q-.28,28.7-.07,47.24c.14,12.37.25,20.11.35,23.26H603.38V567.31q0-19.87.28-45.92l-87.93.3-4.64-7.81q33.44-41,62.93-78.63t32.31-41.31l7.87,5.15q-.15,25.43-.21,68.35t-.07,45.27c4.3,0,9.88,0,16.71.07s17.19,0,31-.22ZM603.8,411l-.28.05-80.3,101.35.09.3,11.87.07q10.47.08,24,.07H578.8q14.61,0,24.86-.14,0-20.73.07-48.64T603.8,411Z" transform="translate(-137 -48.74)"/><path d="M768.87,505.5a35.33,35.33,0,0,1-4.29,17.44A41.5,41.5,0,0,1,752,536.55a51.36,51.36,0,0,1-18,7.51,108.57,108.57,0,0,1-24.3,2.5c-3.19,0-6.93-.13-11.24-.37s-7.4-.47-9.27-.66l-.28-9.72q2.94.3,8.85.67t13.2.36a111,111,0,0,0,18-1.54q9.42-1.54,13.49-3.9a36.85,36.85,0,0,0,11.73-9.86q4.14-5.6,4.14-14.57a23.53,23.53,0,0,0-3.79-12.88,36.35,36.35,0,0,0-11-10.67,128.65,128.65,0,0,0-15.45-8.31,166.82,166.82,0,0,1-16.72-8.91,42.35,42.35,0,0,1-13.69-13.32,33,33,0,0,1-5.13-18.17,33.32,33.32,0,0,1,4.64-17.66q4.63-7.65,14-13.25A49,49,0,0,1,726,398.43a97.71,97.71,0,0,1,20.86-2q7.31,0,12.22.22c3.28.15,5.48.28,6.6.37l.57,9.42q-3-.15-8.5-.29T745.41,406a89.46,89.46,0,0,0-16.79,1.4,38.87,38.87,0,0,0-12.85,4.78,27.55,27.55,0,0,0-9.48,9.42,23.58,23.58,0,0,0-3.17,12.07,24.4,24.4,0,0,0,3.66,13q3.65,6,12.36,11.26,5.61,3.39,14.26,7.51t15.52,8.24q10.67,6.48,15.31,14.35A33.74,33.74,0,0,1,768.87,505.5Z" transform="translate(-137 -48.74)"/><path d="M951.2,471.79A92.65,92.65,0,0,1,945.79,504a71.88,71.88,0,0,1-15,24.88,64.45,64.45,0,0,1-21.77,15.3,67.44,67.44,0,0,1-26.83,5.3,68.77,68.77,0,0,1-26.69-5.15A59.15,59.15,0,0,1,834.05,529a76.83,76.83,0,0,1-15-25.53,94.11,94.11,0,0,1-5.2-32,92.31,92.31,0,0,1,4.78-30.61,77.37,77.37,0,0,1,13.76-24.43A61.33,61.33,0,0,1,854.21,400a67,67,0,0,1,28.3-6,69,69,0,0,1,28,5.59A59.29,59.29,0,0,1,932,415.28a76.75,76.75,0,0,1,14.33,24.8Q951.2,454,951.2,471.79Zm-10.67,1.48a92.81,92.81,0,0,0-4.78-30.17,63.79,63.79,0,0,0-13.63-23.4,54.12,54.12,0,0,0-17.34-12.44,53.07,53.07,0,0,0-22.13-4.49q-13.62,0-23.32,4.93A61.49,61.49,0,0,0,843,419.4q-8.56,8.84-13.56,22.74a85.56,85.56,0,0,0-5,29.07,88.7,88.7,0,0,0,4.84,29.94,63.38,63.38,0,0,0,15,23.77,55.47,55.47,0,0,0,16.58,11.33,50.45,50.45,0,0,0,21.21,4.42,56.39,56.39,0,0,0,21.77-4.12,52,52,0,0,0,17.28-11.48,62.61,62.61,0,0,0,14.47-22.88A82.84,82.84,0,0,0,940.53,473.27Z" transform="translate(-137 -48.74)"/><path d="M1081.56,338.9h-6.32a53.54,53.54,0,0,0-19.1,3.45,38.66,38.66,0,0,0-15.17,10,40,40,0,0,0-8.57,15.2q-2.82,8.88-2.81,24v5.58h49V406h-49q0,47.69.14,92.57t.14,47.24h-10.82q0-2.36.14-45.47t.14-94.34H991.66v-8.83h27.67v-7.49a92.29,92.29,0,0,1,2.6-22.61,49.36,49.36,0,0,1,9.9-19.24q6.2-7.63,17.63-12.71a61.78,61.78,0,0,1,25.22-5.06h5.62Z" transform="translate(-137 -48.74)"/><path d="M1191.55,536.84l-.84,9.13c-1,0-2.53,0-4.49.15s-3.8.14-5.48.14q-25.15,0-37.86-12.87t-12.71-39.23q0-18.24.14-42.6t.14-45.26h-23.74v-8.83h24.16V363h10v34.43h51.84v8.83h-51.84q0,4.43-.14,17.81t-.14,26.64q0,14.87.07,23.25t.07,16.48q0,24.28,9.34,35.4T1183.69,537c1.31,0,2.71,0,4.21-.07S1190.62,536.84,1191.55,536.84Z" transform="translate(-137 -48.74)"/></g><path class="cls-1" d="M728.39,618.28a8.36,8.36,0,0,1-6.18,2.26h-3v11.6h-2l0-30.3h5.21a7.94,7.94,0,0,1,6.05,2.28c1.44,1.52,2.17,3.8,2.17,6.84C730.63,614.33,729.89,616.77,728.39,618.28Zm-1.51-12.45a5.24,5.24,0,0,0-4-1.58h-3.6V618.1h3.38a5.64,5.64,0,0,0,4.24-1.54q1.51-1.54,1.51-5.52C728.39,608.62,727.88,606.89,726.88,605.83Z" transform="translate(-137 -48.74)"/><path class="cls-1" d="M749.68,610a8.85,8.85,0,0,1,2.32,4.14,23.86,23.86,0,0,1,.78,6.39,22.14,22.14,0,0,1-.79,6.21,9.59,9.59,0,0,1-2.36,4.27,5.18,5.18,0,0,1-3.79,1.55,5.28,5.28,0,0,1-3.81-1.49,9.06,9.06,0,0,1-2.35-4.17,25.75,25.75,0,0,1,0-12.62,9.41,9.41,0,0,1,2.37-4.22,5.64,5.64,0,0,1,7.64-.06Zm-8.62,10.59q0,9.55,4.78,9.54t4.76-9.59q0-9.6-4.73-9.59T741.06,620.59Z" transform="translate(-137 -48.74)"/><path class="cls-1" d="M771.6,632.09l-2.42-17.42-2.59,17.43H763.4L760.13,609h2.19l2.49,21.47,2.94-18.52h2.87l2.83,18.52,2.43-21.48H778l-3.08,23.16Z" transform="translate(-137 -48.74)"/><path class="cls-1" d="M788.37,626.29a6.22,6.22,0,0,0,1.86,2.79,4.1,4.1,0,0,0,2.59.92,5.16,5.16,0,0,0,2.31-.51,9.34,9.34,0,0,0,2.21-1.64l1,2a8.43,8.43,0,0,1-2.62,1.93,6.8,6.8,0,0,1-2.87.68,5.76,5.76,0,0,1-4-1.48,9.3,9.3,0,0,1-2.56-4.2,20.38,20.38,0,0,1-.88-6.31,19.86,19.86,0,0,1,.88-6.23,10.06,10.06,0,0,1,2.5-4.26,5.21,5.21,0,0,1,3.69-1.53,5,5,0,0,1,3.49,1.35,8.6,8.6,0,0,1,2.25,3.88,20.59,20.59,0,0,1,.79,6c0,.34,0,1-.05,1.9H787.63A13.93,13.93,0,0,0,788.37,626.29ZM790.15,612a6.1,6.1,0,0,0-1.73,2.7,15.24,15.24,0,0,0-.77,4.48h9.56a12.37,12.37,0,0,0-1.3-6,3.71,3.71,0,0,0-3.29-2A3.81,3.81,0,0,0,790.15,612Z" transform="translate(-137 -48.74)"/><path class="cls-1" d="M821.37,608.54a10.94,10.94,0,0,1,1.2.35l-.22,7.27h-1.92v-4.52l0-.58-.4,0a4.21,4.21,0,0,0-3.47,1.93,16.31,16.31,0,0,0-2.3,6v10.77h3.45V632h-8.18v-2.29h2.73V611.21h-2.74V608.9h4.25l.38,5.56a12.7,12.7,0,0,1,2.46-4.52,4.75,4.75,0,0,1,3.64-1.5A4,4,0,0,1,821.37,608.54Z" transform="translate(-137 -48.74)"/><path class="cls-1" d="M834.81,626.24a6.35,6.35,0,0,0,1.87,2.8,4.09,4.09,0,0,0,2.59.91,5.16,5.16,0,0,0,2.31-.51,9.27,9.27,0,0,0,2.21-1.63l1,2.05a8.4,8.4,0,0,1-2.61,1.92,6.8,6.8,0,0,1-2.87.68,5.7,5.7,0,0,1-4-1.48,9.3,9.3,0,0,1-2.56-4.2,20.35,20.35,0,0,1-.88-6.3,19.82,19.82,0,0,1,.88-6.23,9.94,9.94,0,0,1,2.5-4.26,5.16,5.16,0,0,1,3.69-1.54,5,5,0,0,1,3.49,1.35,8.65,8.65,0,0,1,2.25,3.88,20.34,20.34,0,0,1,.78,6c0,.34,0,1,0,1.89H834.07A14.19,14.19,0,0,0,834.81,626.24Zm1.79-14.34a6.08,6.08,0,0,0-1.73,2.71,15.17,15.17,0,0,0-.77,4.47h9.56a12.19,12.19,0,0,0-1.31-6,3.7,3.7,0,0,0-3.28-2A3.79,3.79,0,0,0,836.6,611.9Z" transform="translate(-137 -48.74)"/><path class="cls-1" d="M868,599.47l0,32.53h-1.73l-.26-3.2a7.32,7.32,0,0,1-2.18,2.77,4.4,4.4,0,0,1-2.61.87,5.15,5.15,0,0,1-4.85-3.2,19.73,19.73,0,0,1-1.63-8.74,22.65,22.65,0,0,1,.78-6.22,10.09,10.09,0,0,1,2.26-4.29,4.66,4.66,0,0,1,3.51-1.56,4.94,4.94,0,0,1,2.67.72,6.63,6.63,0,0,1,2,2.18l0-12.23Zm-9.76,13.78a16.66,16.66,0,0,0-1.23,7.22,17.54,17.54,0,0,0,1.14,7.1,3.62,3.62,0,0,0,3.35,2.49q2.64,0,4.54-3.95v-12a6.44,6.44,0,0,0-1.84-2.42,3.72,3.72,0,0,0-2.37-.86A3.87,3.87,0,0,0,858.27,613.25Z" transform="translate(-137 -48.74)"/><path class="cls-1" d="M906.5,609.31a4.45,4.45,0,0,1,2.72-.93,5,5,0,0,1,4.81,3.16,20.86,20.86,0,0,1,1.52,8.83,22.69,22.69,0,0,1-.76,6.24,9.81,9.81,0,0,1-2.25,4.25,4.88,4.88,0,0,1-3.6,1.54,5.07,5.07,0,0,1-2.69-.71,6,6,0,0,1-2-2.22l-.19,2.49h-1.73l0-32.52,2-.38V612A8.35,8.35,0,0,1,906.5,609.31Zm5.59,18.26a16.48,16.48,0,0,0,1.22-7.24,18,18,0,0,0-1.11-7.13c-.73-1.66-1.82-2.48-3.26-2.48a3.7,3.7,0,0,0-2.63,1.16,10.41,10.41,0,0,0-2,2.88v12a6.73,6.73,0,0,0,1.85,2.38,3.72,3.72,0,0,0,2.36.88A3.86,3.86,0,0,0,912.09,627.57Z" transform="translate(-137 -48.74)"/><path class="cls-1" d="M933,632.13a26.78,26.78,0,0,1-1.44,4.31,9.34,9.34,0,0,1-2.14,3.09,6.13,6.13,0,0,1-3.34,1.6l-.35-2.38a6.53,6.53,0,0,0,2.7-1.28,5.84,5.84,0,0,0,1.57-2.14,18.7,18.7,0,0,0,1.06-3.4h-.65l-6.06-23.15h2.15l5.31,20.81,5.1-20.82h2.07Z" transform="translate(-137 -48.74)"/><path class="cls-1" d="M986,609.63a8.71,8.71,0,0,1-2.13.51c-.74.07-1.68.11-2.82.11a5.75,5.75,0,0,1,2.13,2.38,7.78,7.78,0,0,1,.71,3.39,11.22,11.22,0,0,1-.71,4.12,6.21,6.21,0,0,1-2.1,2.8,5.38,5.38,0,0,1-3.26,1,7.84,7.84,0,0,1-1.52-.12,5,5,0,0,1-1.17-.39,3.49,3.49,0,0,0-.69,1.13,3.76,3.76,0,0,0-.27,1.41c0,1.4.79,2.09,2.37,2.09h3.11a5.49,5.49,0,0,1,2.92.81,5.88,5.88,0,0,1,2.11,2.23,6.29,6.29,0,0,1,.78,3.1,6.4,6.4,0,0,1-2,5.11,8.35,8.35,0,0,1-5.71,1.78,9.26,9.26,0,0,1-4-.71,4.33,4.33,0,0,1-2.14-2.2,9.78,9.78,0,0,1-.66-3.92h1.83a6,6,0,0,0,.42,2.46,2.72,2.72,0,0,0,1.48,1.38,7.73,7.73,0,0,0,3,.46,7.53,7.53,0,0,0,4.33-1,3.63,3.63,0,0,0,1.42-3.15,3.25,3.25,0,0,0-1.18-2.7,4.74,4.74,0,0,0-3-.93H976.1a3.82,3.82,0,0,1-2.17-.58,3.7,3.7,0,0,1-1.33-1.55,5.22,5.22,0,0,1,0-4.24,6.09,6.09,0,0,1,1.36-1.85,6.25,6.25,0,0,1-2.09-2.56,9.34,9.34,0,0,1-.68-3.77,9.84,9.84,0,0,1,.81-4.06,6.7,6.7,0,0,1,2.28-2.83,5.73,5.73,0,0,1,3.36-1,29.31,29.31,0,0,0,3.44-.21,11.3,11.3,0,0,0,2.16-.51,16.19,16.19,0,0,0,2-.94ZM974.34,612a7.31,7.31,0,0,0-1.08,4.21,7.17,7.17,0,0,0,1.12,4.22,3.84,3.84,0,0,0,3.35,1.58,3.33,3.33,0,0,0,2.95-1.54,7.6,7.6,0,0,0,1-4.29,7.43,7.43,0,0,0-1-4.29,3.48,3.48,0,0,0-3-1.48A3.7,3.7,0,0,0,974.34,612Z" transform="translate(-137 -48.74)"/><path class="cls-1" d="M1005.15,609.74a8.9,8.9,0,0,1,2.32,4.14,24,24,0,0,1,.78,6.4,22.24,22.24,0,0,1-.79,6.21,9.61,9.61,0,0,1-2.36,4.26,5.15,5.15,0,0,1-3.79,1.55,5.32,5.32,0,0,1-3.81-1.48,9.09,9.09,0,0,1-2.35-4.18,25.71,25.71,0,0,1,0-12.61,9.39,9.39,0,0,1,2.37-4.23,5.3,5.3,0,0,1,3.83-1.51A5.38,5.38,0,0,1,1005.15,609.74Zm-8.62,10.59q0,9.55,4.78,9.55t4.76-9.6q0-9.6-4.73-9.59T996.53,620.33Z" transform="translate(-137 -48.74)"/><path class="cls-1" d="M1028.37,609.72a8.82,8.82,0,0,1,2.32,4.14,23.07,23.07,0,0,1,.78,6.39,22.14,22.14,0,0,1-.79,6.21,9.58,9.58,0,0,1-2.35,4.27,5.22,5.22,0,0,1-3.79,1.55,5.29,5.29,0,0,1-3.82-1.49,9.24,9.24,0,0,1-2.35-4.17,25.6,25.6,0,0,1,0-12.62,9.31,9.31,0,0,1,2.36-4.22,5.64,5.64,0,0,1,7.64-.06Zm-8.61,10.59c0,6.37,1.6,9.55,4.77,9.54s4.77-3.2,4.76-9.59-1.58-9.59-4.73-9.59S1019.75,613.89,1019.76,620.31Z" transform="translate(-137 -48.74)"/><path class="cls-1" d="M1053.82,599.28l0,32.53h-1.73l-.26-3.2a7.43,7.43,0,0,1-2.18,2.77,4.46,4.46,0,0,1-2.62.88,5.19,5.19,0,0,1-4.85-3.21,19.57,19.57,0,0,1-1.62-8.74,22,22,0,0,1,.78-6.22,10.25,10.25,0,0,1,2.25-4.29,4.69,4.69,0,0,1,3.51-1.56,4.87,4.87,0,0,1,2.68.73,6.42,6.42,0,0,1,2,2.18V598.91Zm-9.76,13.78a16.55,16.55,0,0,0-1.22,7.23,17.58,17.58,0,0,0,1.14,7.1,3.62,3.62,0,0,0,3.35,2.49c1.76,0,3.27-1.32,4.54-4l0-12a6.53,6.53,0,0,0-1.83-2.42,3.79,3.79,0,0,0-2.38-.86A3.87,3.87,0,0,0,1044.06,613.06Z" transform="translate(-137 -48.74)"/><path class="cls-1" d="M1096.1,629.38H1101v2.38H1088.8v-2.38h5.31l0-18.39h-5.15v-2.38h7.14Zm-.7-30.61a2.52,2.52,0,0,1,.46,1.55,2.69,2.69,0,0,1-.46,1.63,1.42,1.42,0,0,1-2.37,0,2.79,2.79,0,0,1-.45-1.64,2.6,2.6,0,0,1,.45-1.55,1.39,1.39,0,0,1,1.16-.63A1.42,1.42,0,0,1,1095.4,598.77Z" transform="translate(-137 -48.74)"/><path class="cls-1" d="M1123.5,599.21l0,32.53h-1.73l-.26-3.2a7.24,7.24,0,0,1-2.18,2.77,4.43,4.43,0,0,1-2.61.88,5.18,5.18,0,0,1-4.85-3.21,19.7,19.7,0,0,1-1.63-8.74,22.76,22.76,0,0,1,.78-6.22,10.15,10.15,0,0,1,2.26-4.29,4.66,4.66,0,0,1,3.51-1.56,4.86,4.86,0,0,1,2.67.73,6.44,6.44,0,0,1,2,2.18l0-12.24ZM1113.74,613a16.68,16.68,0,0,0-1.23,7.23,17.58,17.58,0,0,0,1.14,7.1c.76,1.66,1.88,2.49,3.35,2.48,1.76,0,3.27-1.31,4.54-3.95v-12a6.55,6.55,0,0,0-1.84-2.42,3.78,3.78,0,0,0-2.37-.86A3.87,3.87,0,0,0,1113.74,613Z" transform="translate(-137 -48.74)"/><path class="cls-1" d="M1136.73,625.94a6.32,6.32,0,0,0,1.87,2.8,4.12,4.12,0,0,0,2.58.91,5.17,5.17,0,0,0,2.32-.51,9.26,9.26,0,0,0,2.21-1.64l1,2a8.39,8.39,0,0,1-2.61,1.93,6.84,6.84,0,0,1-2.87.68,5.75,5.75,0,0,1-4-1.48,9.3,9.3,0,0,1-2.56-4.2,20.66,20.66,0,0,1-.89-6.31,20.19,20.19,0,0,1,.89-6.23,10,10,0,0,1,2.5-4.26,5.19,5.19,0,0,1,3.69-1.53,5,5,0,0,1,3.49,1.35,8.6,8.6,0,0,1,2.25,3.88,20.27,20.27,0,0,1,.78,6c0,.34,0,1,0,1.9H1136A14.19,14.19,0,0,0,1136.73,625.94Zm1.79-14.34a6.1,6.1,0,0,0-1.73,2.7,14.92,14.92,0,0,0-.77,4.48h9.55a12.15,12.15,0,0,0-1.3-6,3.7,3.7,0,0,0-3.28-2A3.79,3.79,0,0,0,1138.52,611.6Z" transform="translate(-137 -48.74)"/><path class="cls-1" d="M1169.53,629.17a2,2,0,0,0,1.1,1l-.54,2a3.26,3.26,0,0,1-1.75-1,4.59,4.59,0,0,1-1-2.3,6.61,6.61,0,0,1-2.2,2.46,5.35,5.35,0,0,1-3,.85,4.78,4.78,0,0,1-2.86-.87,5.46,5.46,0,0,1-1.85-2.48,10.09,10.09,0,0,1-.64-3.77,7.05,7.05,0,0,1,2-5.4,8.18,8.18,0,0,1,5.79-1.88h2.55v-2.25a5.4,5.4,0,0,0-1.09-3.75,4.07,4.07,0,0,0-3.13-1.14,9.85,9.85,0,0,0-4.3,1.17l-.58-2.25a12.89,12.89,0,0,1,2.7-1.07,9.69,9.69,0,0,1,2.47-.32,5.62,5.62,0,0,1,3.28.9,5.52,5.52,0,0,1,2,2.53,10,10,0,0,1,.68,3.84v11.73A4.82,4.82,0,0,0,1169.53,629.17Zm-4.45-.14a7.63,7.63,0,0,0,2.05-2.58v-6.62h-2.78a5.37,5.37,0,0,0-4.11,1.38,5.59,5.59,0,0,0-1.25,3.9,6.16,6.16,0,0,0,.88,3.64,3.05,3.05,0,0,0,2.66,1.21A4.1,4.1,0,0,0,1165.08,629Z" transform="translate(-137 -48.74)"/><path class="cls-1" d="M1188.87,629.1a3.71,3.71,0,0,0,1.59-1.44,4.23,4.23,0,0,0,.55-2.16,6.49,6.49,0,0,0-.29-2.06,3.26,3.26,0,0,0-1.17-1.47,9.48,9.48,0,0,0-2.63-1.26,17,17,0,0,1-3.27-1.41,5.21,5.21,0,0,1-1.93-2,7.34,7.34,0,0,1,.09-6.4,5.32,5.32,0,0,1,2.16-2.1,6.74,6.74,0,0,1,3.15-.73,7.87,7.87,0,0,1,3.31.68,8.89,8.89,0,0,1,2.58,1.81l-.93,2a8.15,8.15,0,0,0-2.19-1.55,6.39,6.39,0,0,0-2.75-.54,4.33,4.33,0,0,0-3.07.92,3.32,3.32,0,0,0-1,2.5,3.66,3.66,0,0,0,.44,1.88,3.5,3.5,0,0,0,1.39,1.29,18.19,18.19,0,0,0,2.79,1.21,12.81,12.81,0,0,1,3,1.5,5.69,5.69,0,0,1,1.84,2.19,7.79,7.79,0,0,1,.66,3.41,7,7,0,0,1-1,3.81,5.61,5.61,0,0,1-2.5,2.19,8.15,8.15,0,0,1-3.36.69,7.88,7.88,0,0,1-6.3-3l1.23-2a7.63,7.63,0,0,0,2.32,1.87,5.91,5.91,0,0,0,2.76.66A5.39,5.39,0,0,0,1188.87,629.1Z" transform="translate(-137 -48.74)"/><path class="cls-2" d="M334,398m-166.5-7.5" transform="translate(-137 -48.74)"/><polyline class="cls-3" points="187 362.26 188 486.26 10 486.26 10 362.26 98 311.26"/><line class="cls-4" x1="111" y1="292.26" x2="200" y2="343.26"/><path class="cls-5" d="M171,424" transform="translate(-137 -48.74)"/><text x="-137" y="-48.74"/></svg>
